<svg xmlns="http://www.w3.org/2000/svg" id="Layer_1" viewBox="0 0 120 120" width="120" height="120"><style>.st0{fill:#fff}.st1{fill:#1ab7ea}</style><path d="M120 108c0 6.6-5.4 12-12 12H12c-6.6 0-12-5.4-12-12V12C0 5.4 5.4 0 12 0h96c6.6 0 12 5.4 12 12v96z" class="st0"/><path d="M101.7 39.4c-.4 8.4-6.3 20-17.7 34.7C72.2 89.3 62.2 97 54.1 97c-5.1 0-9.3-4.7-12.8-14-2.3-8.6-4.7-17.1-7-25.7-2.6-9.3-5.4-14-8.4-14-.6 0-2.9 1.4-6.8 4.1L15 42.2c4.3-3.8 8.5-7.5 12.7-11.3 5.7-4.9 10-7.5 12.9-7.8 6.7-.6 10.9 4 12.5 13.8 1.7 10.7 2.9 17.3 3.5 19.9 1.9 8.8 4.1 13.3 6.4 13.3 1.8 0 4.5-2.9 8.2-8.6 3.6-5.7 5.6-10.1 5.8-13.1.5-4.9-1.4-7.4-5.8-7.4-2.1 0-4.2.5-6.4 1.4 4.3-14 12.4-20.7 24.4-20.3 8.8.2 13 6 12.5 17.3z" class="st1"/></svg>